{
	"patcher" : 	{
		"fileversion" : 1,
		"appversion" : 		{
			"major" : 8,
			"minor" : 2,
			"revision" : 1,
			"architecture" : "x64",
			"modernui" : 1
		}
,
		"classnamespace" : "box",
		"rect" : [ 210.0, 135.0, 314.0, 548.0 ],
		"bglocked" : 0,
		"openinpresentation" : 1,
		"default_fontsize" : 12.0,
		"default_fontface" : 0,
		"default_fontname" : "Arial",
		"gridonopen" : 1,
		"gridsize" : [ 15.0, 15.0 ],
		"gridsnaponopen" : 1,
		"objectsnaponopen" : 1,
		"statusbarvisible" : 2,
		"toolbarvisible" : 1,
		"lefttoolbarpinned" : 2,
		"toptoolbarpinned" : 2,
		"righttoolbarpinned" : 2,
		"bottomtoolbarpinned" : 2,
		"toolbars_unpinned_last_save" : 0,
		"tallnewobj" : 0,
		"boxanimatetime" : 200,
		"enablehscroll" : 1,
		"enablevscroll" : 1,
		"devicewidth" : 0.0,
		"description" : "",
		"digest" : "",
		"tags" : "",
		"style" : "",
		"subpatcher_template" : "",
		"assistshowspatchername" : 0,
		"boxes" : [ 			{
				"box" : 				{
					"id" : "obj-59",
					"maxclass" : "newobj",
					"numinlets" : 2,
					"numoutlets" : 1,
					"outlettype" : [ "int" ],
					"patching_rect" : [ 718.0, 311.802245999999968, 66.0, 22.0 ],
					"text" : "random 22"
				}

			}
, 			{
				"box" : 				{
					"id" : "obj-2",
					"maxclass" : "newobj",
					"numinlets" : 2,
					"numoutlets" : 1,
					"outlettype" : [ "signal" ],
					"patching_rect" : [ 263.0, 573.0, 34.0, 22.0 ],
					"text" : "*~ 1."
				}

			}
, 			{
				"box" : 				{
					"id" : "obj-1",
					"maxclass" : "newobj",
					"numinlets" : 2,
					"numoutlets" : 1,
					"outlettype" : [ "signal" ],
					"patching_rect" : [ 263.0, 522.0, 34.0, 22.0 ],
					"text" : "*~ 1."
				}

			}
, 			{
				"box" : 				{
					"id" : "obj-4",
					"maxclass" : "newobj",
					"numinlets" : 2,
					"numoutlets" : 1,
					"outlettype" : [ "signal" ],
					"patching_rect" : [ 40.0, 522.0, 34.0, 22.0 ],
					"text" : "*~ 1."
				}

			}
, 			{
				"box" : 				{
					"id" : "obj-22",
					"maxclass" : "newobj",
					"numinlets" : 2,
					"numoutlets" : 2,
					"outlettype" : [ "bang", "" ],
					"patching_rect" : [ 963.18541033434667, 886.0, 80.0, 22.0 ],
					"text" : "sel \"No Card\""
				}

			}
, 			{
				"box" : 				{
					"id" : "obj-20",
					"maxclass" : "newobj",
					"numinlets" : 1,
					"numoutlets" : 1,
					"outlettype" : [ "" ],
					"patcher" : 					{
						"fileversion" : 1,
						"appversion" : 						{
							"major" : 8,
							"minor" : 2,
							"revision" : 1,
							"architecture" : "x64",
							"modernui" : 1
						}
,
						"classnamespace" : "box",
						"rect" : [ 59.0, 107.0, 518.0, 325.0 ],
						"bglocked" : 0,
						"openinpresentation" : 0,
						"default_fontsize" : 12.0,
						"default_fontface" : 0,
						"default_fontname" : "Arial",
						"gridonopen" : 1,
						"gridsize" : [ 15.0, 15.0 ],
						"gridsnaponopen" : 1,
						"objectsnaponopen" : 1,
						"statusbarvisible" : 2,
						"toolbarvisible" : 1,
						"lefttoolbarpinned" : 0,
						"toptoolbarpinned" : 0,
						"righttoolbarpinned" : 0,
						"bottomtoolbarpinned" : 0,
						"toolbars_unpinned_last_save" : 0,
						"tallnewobj" : 0,
						"boxanimatetime" : 200,
						"enablehscroll" : 1,
						"enablevscroll" : 1,
						"devicewidth" : 0.0,
						"description" : "",
						"digest" : "",
						"tags" : "",
						"style" : "",
						"subpatcher_template" : "",
						"assistshowspatchername" : 0,
						"boxes" : [ 							{
								"box" : 								{
									"id" : "obj-8",
									"maxclass" : "message",
									"numinlets" : 2,
									"numoutlets" : 1,
									"outlettype" : [ "" ],
									"patching_rect" : [ 273.0, 195.0, 104.0, 22.0 ],
									"text" : "textcolor $1 $2 $3"
								}

							}
, 							{
								"box" : 								{
									"id" : "obj-7",
									"maxclass" : "message",
									"numinlets" : 2,
									"numoutlets" : 1,
									"outlettype" : [ "" ],
									"patching_rect" : [ 459.0, 137.0, 45.0, 22.0 ],
									"text" : "1. 1. 1."
								}

							}
, 							{
								"box" : 								{
									"id" : "obj-3",
									"maxclass" : "message",
									"numinlets" : 2,
									"numoutlets" : 1,
									"outlettype" : [ "" ],
									"patching_rect" : [ 273.0, 137.0, 85.0, 22.0 ],
									"text" : "0.48 0.15 0.67"
								}

							}
, 							{
								"box" : 								{
									"id" : "obj-4",
									"maxclass" : "message",
									"numinlets" : 2,
									"numoutlets" : 1,
									"outlettype" : [ "" ],
									"patching_rect" : [ 212.0, 137.0, 59.0, 22.0 ],
									"text" : "1. 0.79 0."
								}

							}
, 							{
								"box" : 								{
									"id" : "obj-2",
									"maxclass" : "message",
									"numinlets" : 2,
									"numoutlets" : 1,
									"outlettype" : [ "" ],
									"patching_rect" : [ 374.0, 137.0, 65.0, 22.0 ],
									"text" : "0.5 0.5 0.5"
								}

							}
, 							{
								"box" : 								{
									"comment" : "",
									"id" : "obj-1",
									"index" : 1,
									"maxclass" : "inlet",
									"numinlets" : 0,
									"numoutlets" : 1,
									"outlettype" : [ "bang" ],
									"patching_rect" : [ 50.0, 28.0, 30.0, 30.0 ]
								}

							}
, 							{
								"box" : 								{
									"id" : "obj-213",
									"maxclass" : "message",
									"numinlets" : 2,
									"numoutlets" : 1,
									"outlettype" : [ "" ],
									"patching_rect" : [ 111.0, 137.0, 85.0, 22.0 ],
									"text" : "0.48 0.15 0.67"
								}

							}
, 							{
								"box" : 								{
									"id" : "obj-210",
									"maxclass" : "message",
									"numinlets" : 2,
									"numoutlets" : 1,
									"outlettype" : [ "" ],
									"patching_rect" : [ 50.0, 137.0, 59.0, 22.0 ],
									"text" : "1. 0.79 0."
								}

							}
, 							{
								"box" : 								{
									"id" : "obj-206",
									"maxclass" : "message",
									"numinlets" : 2,
									"numoutlets" : 1,
									"outlettype" : [ "" ],
									"patching_rect" : [ 50.0, 195.0, 109.0, 22.0 ],
									"text" : "bgfillcolor $1 $2 $3"
								}

							}
, 							{
								"box" : 								{
									"id" : "obj-197",
									"maxclass" : "newobj",
									"numinlets" : 3,
									"numoutlets" : 3,
									"outlettype" : [ "bang", "bang", "" ],
									"patching_rect" : [ 50.0, 85.0, 343.0, 22.0 ],
									"text" : "sel up down"
								}

							}
, 							{
								"box" : 								{
									"comment" : "",
									"id" : "obj-214",
									"index" : 1,
									"maxclass" : "outlet",
									"numinlets" : 1,
									"numoutlets" : 0,
									"patching_rect" : [ 50.0, 252.0, 30.0, 30.0 ]
								}

							}
 ],
						"lines" : [ 							{
								"patchline" : 								{
									"destination" : [ "obj-197", 0 ],
									"source" : [ "obj-1", 0 ]
								}

							}
, 							{
								"patchline" : 								{
									"destination" : [ "obj-2", 0 ],
									"order" : 1,
									"source" : [ "obj-197", 2 ]
								}

							}
, 							{
								"patchline" : 								{
									"destination" : [ "obj-210", 0 ],
									"order" : 1,
									"source" : [ "obj-197", 0 ]
								}

							}
, 							{
								"patchline" : 								{
									"destination" : [ "obj-213", 0 ],
									"order" : 0,
									"source" : [ "obj-197", 0 ]
								}

							}
, 							{
								"patchline" : 								{
									"destination" : [ "obj-3", 0 ],
									"order" : 0,
									"source" : [ "obj-197", 1 ]
								}

							}
, 							{
								"patchline" : 								{
									"destination" : [ "obj-4", 0 ],
									"order" : 1,
									"source" : [ "obj-197", 1 ]
								}

							}
, 							{
								"patchline" : 								{
									"destination" : [ "obj-7", 0 ],
									"order" : 0,
									"source" : [ "obj-197", 2 ]
								}

							}
, 							{
								"patchline" : 								{
									"destination" : [ "obj-206", 0 ],
									"source" : [ "obj-2", 0 ]
								}

							}
, 							{
								"patchline" : 								{
									"destination" : [ "obj-214", 0 ],
									"source" : [ "obj-206", 0 ]
								}

							}
, 							{
								"patchline" : 								{
									"destination" : [ "obj-206", 0 ],
									"source" : [ "obj-210", 0 ]
								}

							}
, 							{
								"patchline" : 								{
									"destination" : [ "obj-8", 0 ],
									"source" : [ "obj-213", 0 ]
								}

							}
, 							{
								"patchline" : 								{
									"destination" : [ "obj-206", 0 ],
									"source" : [ "obj-3", 0 ]
								}

							}
, 							{
								"patchline" : 								{
									"destination" : [ "obj-8", 0 ],
									"source" : [ "obj-4", 0 ]
								}

							}
, 							{
								"patchline" : 								{
									"destination" : [ "obj-8", 0 ],
									"source" : [ "obj-7", 0 ]
								}

							}
, 							{
								"patchline" : 								{
									"destination" : [ "obj-214", 0 ],
									"source" : [ "obj-8", 0 ]
								}

							}
 ]
					}
,
					"patching_rect" : [ 598.0, 699.0, 123.0, 22.0 ],
					"saved_object_attributes" : 					{
						"description" : "",
						"digest" : "",
						"globalpatchername" : "",
						"tags" : ""
					}
,
					"text" : "p menuColorUpDown"
				}

			}
, 			{
				"box" : 				{
					"bgcolor" : [ 0.48, 0.15, 0.67 ],
					"bgfillcolor_angle" : 270.0,
					"bgfillcolor_autogradient" : 0.0,
					"bgfillcolor_color" : [ 0.48, 0.15, 0.67 ],
					"bgfillcolor_color1" : [ 0.996078431372549, 0.32156862745098, 0.137254901960784, 1.0 ],
					"bgfillcolor_color2" : [ 0.2, 0.2, 0.2, 1.0 ],
					"bgfillcolor_proportion" : 0.5,
					"bgfillcolor_type" : "color",
					"color" : [ 1.0, 0.788235294117647, 0.0, 1.0 ],
					"fontsize" : 20.0,
					"id" : "obj-3",
					"items" : [ "up", ",", "down" ],
					"maxclass" : "umenu",
					"numinlets" : 1,
					"numoutlets" : 3,
					"outlettype" : [ "int", "", "" ],
					"parameter_enable" : 0,
					"patching_rect" : [ 40.0, 71.0, 81.569478908188557, 31.0 ],
					"presentation" : 1,
					"presentation_rect" : [ 140.996960486322678, 54.5, 81.0, 31.0 ],
					"textcolor" : [ 1.0, 0.79, 0.0, 1.0 ]
				}

			}
, 			{
				"box" : 				{
					"id" : "obj-215",
					"maxclass" : "newobj",
					"numinlets" : 1,
					"numoutlets" : 1,
					"outlettype" : [ "" ],
					"patcher" : 					{
						"fileversion" : 1,
						"appversion" : 						{
							"major" : 8,
							"minor" : 2,
							"revision" : 1,
							"architecture" : "x64",
							"modernui" : 1
						}
,
						"classnamespace" : "box",
						"rect" : [ 59.0, 107.0, 304.0, 325.0 ],
						"bglocked" : 0,
						"openinpresentation" : 0,
						"default_fontsize" : 12.0,
						"default_fontface" : 0,
						"default_fontname" : "Arial",
						"gridonopen" : 1,
						"gridsize" : [ 15.0, 15.0 ],
						"gridsnaponopen" : 1,
						"objectsnaponopen" : 1,
						"statusbarvisible" : 2,
						"toolbarvisible" : 1,
						"lefttoolbarpinned" : 0,
						"toptoolbarpinned" : 0,
						"righttoolbarpinned" : 0,
						"bottomtoolbarpinned" : 0,
						"toolbars_unpinned_last_save" : 0,
						"tallnewobj" : 0,
						"boxanimatetime" : 200,
						"enablehscroll" : 1,
						"enablevscroll" : 1,
						"devicewidth" : 0.0,
						"description" : "",
						"digest" : "",
						"tags" : "",
						"style" : "",
						"subpatcher_template" : "",
						"assistshowspatchername" : 0,
						"boxes" : [ 							{
								"box" : 								{
									"id" : "obj-2",
									"maxclass" : "message",
									"numinlets" : 2,
									"numoutlets" : 1,
									"outlettype" : [ "" ],
									"patching_rect" : [ 198.0, 137.0, 65.0, 22.0 ],
									"text" : "0.5 0.5 0.5"
								}

							}
, 							{
								"box" : 								{
									"comment" : "",
									"id" : "obj-1",
									"index" : 1,
									"maxclass" : "inlet",
									"numinlets" : 0,
									"numoutlets" : 1,
									"outlettype" : [ "bang" ],
									"patching_rect" : [ 50.0, 28.0, 30.0, 30.0 ]
								}

							}
, 							{
								"box" : 								{
									"id" : "obj-213",
									"maxclass" : "message",
									"numinlets" : 2,
									"numoutlets" : 1,
									"outlettype" : [ "" ],
									"patching_rect" : [ 111.0, 137.0, 85.0, 22.0 ],
									"text" : "0.48 0.15 0.67"
								}

							}
, 							{
								"box" : 								{
									"id" : "obj-210",
									"maxclass" : "message",
									"numinlets" : 2,
									"numoutlets" : 1,
									"outlettype" : [ "" ],
									"patching_rect" : [ 50.0, 137.0, 59.0, 22.0 ],
									"text" : "1. 0.79 0."
								}

							}
, 							{
								"box" : 								{
									"id" : "obj-206",
									"maxclass" : "message",
									"numinlets" : 2,
									"numoutlets" : 1,
									"outlettype" : [ "" ],
									"patching_rect" : [ 50.0, 170.0, 119.0, 22.0 ],
									"text" : "bordercolor $1 $2 $3"
								}

							}
, 							{
								"box" : 								{
									"id" : "obj-197",
									"maxclass" : "newobj",
									"numinlets" : 3,
									"numoutlets" : 3,
									"outlettype" : [ "bang", "bang", "" ],
									"patching_rect" : [ 50.0, 100.0, 73.0, 22.0 ],
									"text" : "sel up down"
								}

							}
, 							{
								"box" : 								{
									"comment" : "",
									"id" : "obj-214",
									"index" : 1,
									"maxclass" : "outlet",
									"numinlets" : 1,
									"numoutlets" : 0,
									"patching_rect" : [ 50.0, 252.0, 30.0, 30.0 ]
								}

							}
 ],
						"lines" : [ 							{
								"patchline" : 								{
									"destination" : [ "obj-197", 0 ],
									"source" : [ "obj-1", 0 ]
								}

							}
, 							{
								"patchline" : 								{
									"destination" : [ "obj-2", 0 ],
									"source" : [ "obj-197", 2 ]
								}

							}
, 							{
								"patchline" : 								{
									"destination" : [ "obj-210", 0 ],
									"source" : [ "obj-197", 0 ]
								}

							}
, 							{
								"patchline" : 								{
									"destination" : [ "obj-213", 0 ],
									"source" : [ "obj-197", 1 ]
								}

							}
, 							{
								"patchline" : 								{
									"destination" : [ "obj-206", 0 ],
									"source" : [ "obj-2", 0 ]
								}

							}
, 							{
								"patchline" : 								{
									"destination" : [ "obj-214", 0 ],
									"source" : [ "obj-206", 0 ]
								}

							}
, 							{
								"patchline" : 								{
									"destination" : [ "obj-206", 0 ],
									"source" : [ "obj-210", 0 ]
								}

							}
, 							{
								"patchline" : 								{
									"destination" : [ "obj-206", 0 ],
									"source" : [ "obj-213", 0 ]
								}

							}
 ]
					}
,
					"patching_rect" : [ 40.0, 699.0, 135.0, 22.0 ],
					"saved_object_attributes" : 					{
						"description" : "",
						"digest" : "",
						"globalpatchername" : "",
						"tags" : ""
					}
,
					"text" : "p borderColorUpDown1"
				}

			}
, 			{
				"box" : 				{
					"id" : "obj-196",
					"maxclass" : "newobj",
					"numinlets" : 1,
					"numoutlets" : 1,
					"outlettype" : [ "bang" ],
					"patching_rect" : [ 1353.185410334346443, 41.0, 63.0, 22.0 ],
					"text" : "closebang"
				}

			}
, 			{
				"box" : 				{
					"angle" : 270.0,
					"bgcolor" : [ 0.2, 0.2, 0.2, 0.0 ],
					"border" : 5,
					"bordercolor" : [ 0.48, 0.15, 0.67, 1.0 ],
					"horizontal_direction" : 1,
					"id" : "obj-193",
					"maxclass" : "panel",
					"mode" : 0,
					"numinlets" : 1,
					"numoutlets" : 0,
					"patching_rect" : [ 40.0, 736.0, 128.0, 128.0 ],
					"presentation" : 1,
					"presentation_rect" : [ 10.251519756838661, 94.5, 246.745440729484017, 445.5 ],
					"proportion" : 0.5
				}

			}
, 			{
				"box" : 				{
					"id" : "obj-192",
					"maxclass" : "comment",
					"numinlets" : 1,
					"numoutlets" : 0,
					"patching_rect" : [ 226.5, 809.0, 150.0, 20.0 ],
					"text" : "template buttonfor ui",
					"textcolor" : [ 0.996078431372549, 0.996078431372549, 0.996078431372549, 1.0 ]
				}

			}
, 			{
				"box" : 				{
					"id" : "obj-190",
					"maxclass" : "button",
					"numinlets" : 1,
					"numoutlets" : 1,
					"outlettype" : [ "bang" ],
					"parameter_enable" : 0,
					"patching_rect" : [ 267.5, 780.0, 24.0, 24.0 ]
				}

			}
, 			{
				"box" : 				{
					"activebgcolor" : [ 0.090196078431373, 0.094117647058824, 0.533333333333333, 1.0 ],
					"activebgoncolor" : [ 0.996078431372549, 0.32156862745098, 0.137254901960784, 1.0 ],
					"id" : "obj-185",
					"maxclass" : "live.button",
					"numinlets" : 1,
					"numoutlets" : 1,
					"outlettype" : [ "" ],
					"parameter_enable" : 1,
					"patching_rect" : [ 919.996960486322678, 794.0, 23.0, 22.0 ],
					"presentation" : 1,
					"presentation_rect" : [ 223.996960486322678, 54.5, 33.0, 31.0 ],
					"saved_attribute_attributes" : 					{
						"activebgcolor" : 						{
							"expression" : ""
						}
,
						"activebgoncolor" : 						{
							"expression" : ""
						}
,
						"valueof" : 						{
							"parameter_enum" : [ "off", "on" ],
							"parameter_longname" : "live.button[2]",
							"parameter_mmax" : 1,
							"parameter_shortname" : "live.button",
							"parameter_type" : 2
						}

					}
,
					"varname" : "live.button[2]"
				}

			}
, 			{
				"box" : 				{
					"id" : "obj-180",
					"maxclass" : "button",
					"numinlets" : 1,
					"numoutlets" : 1,
					"outlettype" : [ "bang" ],
					"parameter_enable" : 0,
					"patching_rect" : [ 958.18541033434667, 402.5, 24.0, 24.0 ]
				}

			}
, 			{
				"box" : 				{
					"id" : "obj-178",
					"maxclass" : "newobj",
					"numinlets" : 1,
					"numoutlets" : 2,
					"outlettype" : [ "bang", "bang" ],
					"patching_rect" : [ 958.18541033434667, 429.0, 32.0, 22.0 ],
					"text" : "t b b"
				}

			}
, 			{
				"box" : 				{
					"id" : "obj-172",
					"maxclass" : "newobj",
					"numinlets" : 2,
					"numoutlets" : 2,
					"outlettype" : [ "", "" ],
					"patching_rect" : [ 958.18541033434667, 743.0, 55.0, 22.0 ],
					"text" : "zl.slice 1"
				}

			}
, 			{
				"box" : 				{
					"id" : "obj-169",
					"linecount" : 2,
					"maxclass" : "message",
					"numinlets" : 2,
					"numoutlets" : 1,
					"outlettype" : [ "" ],
					"patching_rect" : [ 963.18541033434667, 794.0, 50.0, 36.0 ],
					"text" : "fs.t.M-I.maxpat"
				}

			}
, 			{
				"box" : 				{
					"id" : "obj-154",
					"maxclass" : "newobj",
					"numinlets" : 0,
					"numoutlets" : 0,
					"patcher" : 					{
						"fileversion" : 1,
						"appversion" : 						{
							"major" : 8,
							"minor" : 2,
							"revision" : 1,
							"architecture" : "x64",
							"modernui" : 1
						}
,
						"classnamespace" : "box",
						"rect" : [ 59.0, 106.0, 640.0, 480.0 ],
						"bglocked" : 0,
						"openinpresentation" : 0,
						"default_fontsize" : 12.0,
						"default_fontface" : 0,
						"default_fontname" : "Arial",
						"gridonopen" : 1,
						"gridsize" : [ 15.0, 15.0 ],
						"gridsnaponopen" : 1,
						"objectsnaponopen" : 1,
						"statusbarvisible" : 2,
						"toolbarvisible" : 1,
						"lefttoolbarpinned" : 0,
						"toptoolbarpinned" : 0,
						"righttoolbarpinned" : 0,
						"bottomtoolbarpinned" : 0,
						"toolbars_unpinned_last_save" : 0,
						"tallnewobj" : 0,
						"boxanimatetime" : 200,
						"enablehscroll" : 1,
						"enablevscroll" : 1,
						"devicewidth" : 0.0,
						"description" : "",
						"digest" : "",
						"tags" : "",
						"style" : "",
						"subpatcher_template" : "",
						"assistshowspatchername" : 0,
						"boxes" : [ 							{
								"box" : 								{
									"id" : "obj-118",
									"maxclass" : "newobj",
									"numinlets" : 1,
									"numoutlets" : 2,
									"outlettype" : [ "", "" ],
									"patcher" : 									{
										"fileversion" : 1,
										"appversion" : 										{
											"major" : 8,
											"minor" : 2,
											"revision" : 1,
											"architecture" : "x64",
											"modernui" : 1
										}
,
										"classnamespace" : "box",
										"rect" : [ 0.0, 0.0, 640.0, 480.0 ],
										"bglocked" : 0,
										"openinpresentation" : 0,
										"default_fontsize" : 12.0,
										"default_fontface" : 0,
										"default_fontname" : "Arial",
										"gridonopen" : 1,
										"gridsize" : [ 15.0, 15.0 ],
										"gridsnaponopen" : 1,
										"objectsnaponopen" : 1,
										"statusbarvisible" : 2,
										"toolbarvisible" : 1,
										"lefttoolbarpinned" : 0,
										"toptoolbarpinned" : 0,
										"righttoolbarpinned" : 0,
										"bottomtoolbarpinned" : 0,
										"toolbars_unpinned_last_save" : 0,
										"tallnewobj" : 0,
										"boxanimatetime" : 200,
										"enablehscroll" : 1,
										"enablevscroll" : 1,
										"devicewidth" : 0.0,
										"description" : "",
										"digest" : "",
										"tags" : "",
										"style" : "",
										"subpatcher_template" : "",
										"assistshowspatchername" : 0,
										"boxes" : [ 											{
												"box" : 												{
													"id" : "obj-113",
													"maxclass" : "button",
													"numinlets" : 1,
													"numoutlets" : 1,
													"outlettype" : [ "bang" ],
													"parameter_enable" : 0,
													"patching_rect" : [ 132.0, 266.0, 24.0, 24.0 ]
												}

											}
, 											{
												"box" : 												{
													"id" : "obj-109",
													"linecount" : 4,
													"maxclass" : "message",
													"numinlets" : 2,
													"numoutlets" : 1,
													"outlettype" : [ "" ],
													"patching_rect" : [ 241.0, 375.0, 50.0, 64.0 ],
													"text" : "21 fs.t.M-XXI.maxpat"
												}

											}
, 											{
												"box" : 												{
													"id" : "obj-107",
													"maxclass" : "newobj",
													"numinlets" : 1,
													"numoutlets" : 0,
													"patching_rect" : [ 153.0, 409.0, 32.0, 22.0 ],
													"text" : "print"
												}

											}
, 											{
												"box" : 												{
													"id" : "obj-106",
													"maxclass" : "newobj",
													"numinlets" : 2,
													"numoutlets" : 1,
													"outlettype" : [ "" ],
													"patching_rect" : [ 132.0, 338.0, 49.0, 22.0 ],
													"text" : "pack i s"
												}

											}
, 											{
												"box" : 												{
													"id" : "obj-103",
													"maxclass" : "button",
													"numinlets" : 1,
													"numoutlets" : 1,
													"outlettype" : [ "bang" ],
													"parameter_enable" : 0,
													"patching_rect" : [ 268.5, 180.0, 24.0, 24.0 ]
												}

											}
, 											{
												"box" : 												{
													"id" : "obj-101",
													"maxclass" : "newobj",
													"numinlets" : 5,
													"numoutlets" : 4,
													"outlettype" : [ "int", "", "", "int" ],
													"patching_rect" : [ 132.0, 300.0, 65.0, 22.0 ],
													"text" : "counter 23"
												}

											}
, 											{
												"box" : 												{
													"id" : "obj-99",
													"maxclass" : "message",
													"numinlets" : 2,
													"numoutlets" : 1,
													"outlettype" : [ "" ],
													"patching_rect" : [ 141.0, 110.0, 50.0, 22.0 ],
													"text" : "22"
												}

											}
, 											{
												"box" : 												{
													"id" : "obj-94",
													"maxclass" : "newobj",
													"numinlets" : 2,
													"numoutlets" : 2,
													"outlettype" : [ "", "" ],
													"patching_rect" : [ 141.0, 212.0, 55.0, 22.0 ],
													"text" : "zl.slice 1"
												}

											}
, 											{
												"box" : 												{
													"id" : "obj-85",
													"maxclass" : "newobj",
													"numinlets" : 1,
													"numoutlets" : 2,
													"outlettype" : [ "", "int" ],
													"patching_rect" : [ 50.0, 100.0, 39.0, 22.0 ],
													"text" : "folder"
												}

											}
, 											{
												"box" : 												{
													"comment" : "",
													"id" : "obj-115",
													"index" : 1,
													"maxclass" : "inlet",
													"numinlets" : 0,
													"numoutlets" : 1,
													"outlettype" : [ "" ],
													"patching_rect" : [ 50.0, 40.0, 30.0, 30.0 ]
												}

											}
, 											{
												"box" : 												{
													"comment" : "",
													"id" : "obj-116",
													"index" : 1,
													"maxclass" : "outlet",
													"numinlets" : 1,
													"numoutlets" : 0,
													"patching_rect" : [ 50.0, 499.0, 30.0, 30.0 ]
												}

											}
, 											{
												"box" : 												{
													"comment" : "",
													"id" : "obj-117",
													"index" : 2,
													"maxclass" : "outlet",
													"numinlets" : 1,
													"numoutlets" : 0,
													"patching_rect" : [ 132.0, 499.0, 30.0, 30.0 ]
												}

											}
 ],
										"lines" : [ 											{
												"patchline" : 												{
													"destination" : [ "obj-106", 0 ],
													"source" : [ "obj-101", 0 ]
												}

											}
, 											{
												"patchline" : 												{
													"destination" : [ "obj-101", 3 ],
													"source" : [ "obj-103", 0 ]
												}

											}
, 											{
												"patchline" : 												{
													"destination" : [ "obj-107", 0 ],
													"order" : 1,
													"source" : [ "obj-106", 0 ]
												}

											}
, 											{
												"patchline" : 												{
													"destination" : [ "obj-109", 1 ],
													"order" : 0,
													"source" : [ "obj-106", 0 ]
												}

											}
, 											{
												"patchline" : 												{
													"destination" : [ "obj-117", 0 ],
													"order" : 2,
													"source" : [ "obj-106", 0 ]
												}

											}
, 											{
												"patchline" : 												{
													"destination" : [ "obj-101", 0 ],
													"source" : [ "obj-113", 0 ]
												}

											}
, 											{
												"patchline" : 												{
													"destination" : [ "obj-85", 0 ],
													"source" : [ "obj-115", 0 ]
												}

											}
, 											{
												"patchline" : 												{
													"destination" : [ "obj-116", 0 ],
													"order" : 1,
													"source" : [ "obj-85", 0 ]
												}

											}
, 											{
												"patchline" : 												{
													"destination" : [ "obj-94", 0 ],
													"order" : 0,
													"source" : [ "obj-85", 0 ]
												}

											}
, 											{
												"patchline" : 												{
													"destination" : [ "obj-99", 1 ],
													"source" : [ "obj-85", 1 ]
												}

											}
, 											{
												"patchline" : 												{
													"destination" : [ "obj-106", 1 ],
													"source" : [ "obj-94", 1 ]
												}

											}
, 											{
												"patchline" : 												{
													"destination" : [ "obj-113", 0 ],
													"source" : [ "obj-94", 0 ]
												}

											}
 ]
									}
,
									"patching_rect" : [ 66.875, 242.984375, 85.0, 22.0 ],
									"saved_object_attributes" : 									{
										"description" : "",
										"digest" : "",
										"globalpatchername" : "",
										"tags" : ""
									}
,
									"text" : "p getAllMajors"
								}

							}
, 							{
								"box" : 								{
									"id" : "obj-93",
									"linecount" : 4,
									"maxclass" : "message",
									"numinlets" : 2,
									"numoutlets" : 1,
									"outlettype" : [ "" ],
									"patching_rect" : [ 223.875, 107.984375, 147.0, 64.0 ],
									"text" : "C:/Users/RunningWithScissors/Documents/0_WORKPLACE/Gitproj/fs.TAROT/fs-tarot/0_MAJORS/"
								}

							}
, 							{
								"box" : 								{
									"border" : 10.0,
									"bordercolor" : [ 0.996078431372549, 0.32156862745098, 0.137254901960784, 1.0 ],
									"id" : "obj-15",
									"maxclass" : "dropfile",
									"numinlets" : 1,
									"numoutlets" : 2,
									"outlettype" : [ "", "" ],
									"patching_rect" : [ 50.0, 147.234375, 134.75, 44.5 ]
								}

							}
, 							{
								"box" : 								{
									"id" : "obj-87",
									"maxclass" : "newobj",
									"numinlets" : 1,
									"numoutlets" : 4,
									"outlettype" : [ "", "", "", "" ],
									"patching_rect" : [ 132.875, 279.984375, 125.0, 22.0 ],
									"saved_object_attributes" : 									{
										"embed" : 0,
										"precision" : 6
									}
,
									"text" : "coll CardNameToPath"
								}

							}
, 							{
								"box" : 								{
									"id" : "obj-83",
									"items" : [ "fs.t.M-0.maxpat", ",", "fs.t.M-I.maxpat", ",", "fs.t.M-II.maxpat", ",", "fs.t.M-III.maxpat", ",", "fs.t.M-IV.maxpat", ",", "fs.t.M-V.maxpat", ",", "fs.t.M-VI.maxpat", ",", "fs.t.M-VII.maxpat", ",", "fs.t.M-VIII.maxpat", ",", "fs.t.M-VIIII.maxpat", ",", "fs.t.M-X.maxpat", ",", "fs.t.M-XI.maxpat", ",", "fs.t.M-XII.maxpat", ",", "fs.t.M-XIII.maxpat", ",", "fs.t.M-XIV.maxpat", ",", "fs.t.M-XV.maxpat", ",", "fs.t.M-XVI.maxpat", ",", "fs.t.M-XVII.maxpat", ",", "fs.t.M-XVIII.maxpat", ",", "fs.t.M-XVIIII.maxpat", ",", "fs.t.M-XX.maxpat", ",", "fs.t.M-XXI.maxpat" ],
									"maxclass" : "umenu",
									"numinlets" : 1,
									"numoutlets" : 3,
									"outlettype" : [ "int", "", "" ],
									"parameter_enable" : 0,
									"patching_rect" : [ 67.375, 320.984375, 100.0, 22.0 ]
								}

							}
 ],
						"lines" : [ 							{
								"patchline" : 								{
									"destination" : [ "obj-83", 0 ],
									"source" : [ "obj-118", 0 ]
								}

							}
, 							{
								"patchline" : 								{
									"destination" : [ "obj-87", 0 ],
									"source" : [ "obj-118", 1 ]
								}

							}
, 							{
								"patchline" : 								{
									"destination" : [ "obj-118", 0 ],
									"order" : 1,
									"source" : [ "obj-15", 0 ]
								}

							}
, 							{
								"patchline" : 								{
									"destination" : [ "obj-93", 1 ],
									"order" : 0,
									"source" : [ "obj-15", 0 ]
								}

							}
, 							{
								"patchline" : 								{
									"destination" : [ "obj-118", 0 ],
									"source" : [ "obj-93", 0 ]
								}

							}
 ]
					}
,
					"patching_rect" : [ 241.5, 840.0, 76.0, 22.0 ],
					"saved_object_attributes" : 					{
						"description" : "",
						"digest" : "",
						"globalpatchername" : "",
						"tags" : ""
					}
,
					"text" : "p tplayerutils"
				}

			}
, 			{
				"box" : 				{
					"bgcolor" : [ 0.996078431372549, 0.32156862745098, 0.137254901960784, 1.0 ],
					"bgfillcolor_angle" : 270.0,
					"bgfillcolor_autogradient" : 0.0,
					"bgfillcolor_color" : [ 0.996078431372549, 0.32156862745098, 0.137254901960784, 1.0 ],
					"bgfillcolor_color1" : [ 0.996078431372549, 0.32156862745098, 0.137254901960784, 1.0 ],
					"bgfillcolor_color2" : [ 0.2, 0.2, 0.2, 1.0 ],
					"bgfillcolor_proportion" : 0.5,
					"bgfillcolor_type" : "color",
					"color" : [ 0.172549019607843, 0.184313725490196, 0.996078431372549, 1.0 ],
					"fontsize" : 20.0,
					"id" : "obj-144",
					"items" : [ "le mat", ",", "le bateleur", ",", "la papesse", ",", "l'imperatrice", ",", "l'empereur", ",", "le pape", ",", "l'amoureux", ",", "le chariot", ",", "la justice", ",", "l'hermite", ",", "la roue de fortune", ",", "la force", ",", "le pendu", ",", "la mort", ",", "temperance", ",", "le diable", ",", "la maison dieu", ",", "le toille", ",", "la lune", ",", "le soleil", ",", "le jugement", ",", "le monde", ",", "No Card", ",", "le mat", ",", "le bateleur", ",", "la papesse", ",", "l'imperatrice", ",", "l'empereur", ",", "le pape", ",", "l'amoureux", ",", "le chariot", ",", "la justice", ",", "l'hermite", ",", "la roue de fortune", ",", "la force", ",", "le pendu", ",", "la mort", ",", "temperance", ",", "le diable", ",", "la maison dieu", ",", "le toille", ",", "la lune", ",", "le soleil", ",", "le jugement", ",", "le monde", ",", "No Card", ",", "le mat", ",", "le bateleur", ",", "la papesse", ",", "l'imperatrice", ",", "l'empereur", ",", "le pape", ",", "l'amoureux", ",", "le chariot", ",", "la justice", ",", "l'hermite", ",", "la roue de fortune", ",", "la force", ",", "le pendu", ",", "la mort", ",", "temperance", ",", "le diable", ",", "la maison dieu", ",", "le toille", ",", "la lune", ",", "le soleil", ",", "le jugement", ",", "le monde", ",", "No Card" ],
					"maxclass" : "umenu",
					"numinlets" : 1,
					"numoutlets" : 3,
					"outlettype" : [ "int", "", "" ],
					"parameter_enable" : 0,
					"patching_rect" : [ 958.18541033434667, 634.0, 100.0, 31.0 ],
					"presentation" : 1,
					"presentation_rect" : [ 15.0, 54.5, 123.996960486322678, 31.0 ],
					"textcolor" : [ 0.172549019607843, 0.184313725490196, 0.996078431372549, 1.0 ]
				}

			}
, 			{
				"box" : 				{
					"id" : "obj-138",
					"maxclass" : "message",
					"numinlets" : 2,
					"numoutlets" : 1,
					"outlettype" : [ "" ],
					"patching_rect" : [ 958.18541033434667, 597.0, 65.0, 22.0 ],
					"text" : "append $1"
				}

			}
, 			{
				"box" : 				{
					"id" : "obj-136",
					"maxclass" : "newobj",
					"numinlets" : 1,
					"numoutlets" : 1,
					"outlettype" : [ "" ],
					"patching_rect" : [ 958.18541033434667, 570.0, 57.0, 22.0 ],
					"text" : "tosymbol"
				}

			}
, 			{
				"box" : 				{
					"id" : "obj-135",
					"linecount" : 5,
					"maxclass" : "message",
					"numinlets" : 2,
					"numoutlets" : 1,
					"outlettype" : [ "" ],
					"patching_rect" : [ 958.18541033434667, 476.0, 357.0, 77.0 ],
					"text" : "\"le mat\", \"le bateleur\", \"la papesse\", l'imperatrice, l'empereur, \"le pape\", l'amoureux, \"le chariot\", \"la justice\", l'hermite, \"la roue de fortune\", \"la force\", \"le pendu\", \"la mort\", temperance, \"le diable\", \"la maison dieu\", \"le toille\", \"la lune\", \"le soleil\", \"le jugement\", \"le monde\", \"No Card\""
				}

			}
, 			{
				"box" : 				{
					"id" : "obj-120",
					"maxclass" : "newobj",
					"numinlets" : 1,
					"numoutlets" : 1,
					"outlettype" : [ "" ],
					"patching_rect" : [ 958.18541033434667, 669.0, 57.0, 22.0 ],
					"text" : "tosymbol"
				}

			}
, 			{
				"box" : 				{
					"coll_data" : 					{
						"count" : 23,
						"data" : [ 							{
								"key" : "le mat",
								"value" : [ "fs.t.M-0.maxpat" ]
							}
, 							{
								"key" : "le bateleur",
								"value" : [ "fs.t.M-I.maxpat" ]
							}
, 							{
								"key" : "la papesse",
								"value" : [ "fs.t.M-II.maxpat" ]
							}
, 							{
								"key" : "l'imperatrice",
								"value" : [ "fs.t.M-III.maxpat" ]
							}
, 							{
								"key" : "l'empereur",
								"value" : [ "fs.t.M-IV.maxpat" ]
							}
, 							{
								"key" : "le pape",
								"value" : [ "fs.t.M-V.maxpat" ]
							}
, 							{
								"key" : "l'amoureux",
								"value" : [ "fs.t.M-VI.maxpat" ]
							}
, 							{
								"key" : "le chariot",
								"value" : [ "fs.t.M-VII.maxpat" ]
							}
, 							{
								"key" : "l justice",
								"value" : [ "fs.t.M-VIII.maxpat" ]
							}
, 							{
								"key" : "l'hermite",
								"value" : [ "fs.t.M-VIIII.maxpat" ]
							}
, 							{
								"key" : "la roue de fortune",
								"value" : [ "fs.t.M-X.maxpat" ]
							}
, 							{
								"key" : "la force",
								"value" : [ "fs.t.M-XI.maxpat" ]
							}
, 							{
								"key" : "le pendu",
								"value" : [ "fs.t.M-XII.maxpat" ]
							}
, 							{
								"key" : "la mort",
								"value" : [ "fs.t.M-XIII.maxpat" ]
							}
, 							{
								"key" : "temperance",
								"value" : [ "fs.t.M-XIV.maxpat" ]
							}
, 							{
								"key" : "le diable",
								"value" : [ "fs.t.M-XV.maxpat" ]
							}
, 							{
								"key" : "la maison dieu",
								"value" : [ "fs.t.M-XVI.maxpat" ]
							}
, 							{
								"key" : "le toille",
								"value" : [ "fs.t.M-XVII.maxpat" ]
							}
, 							{
								"key" : "la lune",
								"value" : [ "fs.t.M-XVIII.maxpat" ]
							}
, 							{
								"key" : "le soleil",
								"value" : [ "fs.t.M-XVIIII.maxpat" ]
							}
, 							{
								"key" : "le jugement",
								"value" : [ "fs.t.M-XX.maxpat" ]
							}
, 							{
								"key" : "le monde",
								"value" : [ "fs.t.M-XXI.maxpat" ]
							}
, 							{
								"key" : "No Card",
								"value" : [ "fs.t.noCard.maxpat" ]
							}
 ]
					}
,
					"id" : "obj-119",
					"maxclass" : "newobj",
					"numinlets" : 1,
					"numoutlets" : 4,
					"outlettype" : [ "", "", "", "" ],
					"patching_rect" : [ 958.18541033434667, 699.0, 139.0, 22.0 ],
					"saved_object_attributes" : 					{
						"embed" : 1,
						"precision" : 6
					}
,
					"text" : "coll CardNameToPath_1"
				}

			}
, 			{
				"box" : 				{
					"id" : "obj-86",
					"maxclass" : "newobj",
					"numinlets" : 1,
					"numoutlets" : 1,
					"outlettype" : [ "bang" ],
					"patching_rect" : [ 1353.185410334346443, 68.5, 58.0, 22.0 ],
					"text" : "loadbang"
				}

			}
, 			{
				"box" : 				{
					"clip_size" : 1,
					"id" : "obj-82",
					"interval" : 10,
					"maxclass" : "live.meter~",
					"numinlets" : 1,
					"numoutlets" : 2,
					"outlettype" : [ "float", "int" ],
					"patching_rect" : [ 887.0, 425.0, 14.0, 148.0 ],
					"presentation" : 1,
					"presentation_rect" : [ 294.0, 10.0, 9.0, 530.0 ],
					"threshold_db" : 0.04
				}

			}
, 			{
				"box" : 				{
					"clip_size" : 1,
					"id" : "obj-81",
					"interval" : 10,
					"maxclass" : "live.meter~",
					"numinlets" : 1,
					"numoutlets" : 2,
					"outlettype" : [ "float", "int" ],
					"patching_rect" : [ 867.5, 425.0, 14.0, 148.0 ],
					"presentation" : 1,
					"presentation_rect" : [ 279.0, 10.0, 9.0, 530.0 ],
					"threshold_db" : 0.04
				}

			}
, 			{
				"box" : 				{
					"id" : "obj-80",
					"maxclass" : "newobj",
					"numinlets" : 2,
					"numoutlets" : 1,
					"outlettype" : [ "signal" ],
					"patching_rect" : [ 444.0, 650.0, 34.0, 22.0 ],
					"text" : "*~ 1."
				}

			}
, 			{
				"box" : 				{
					"id" : "obj-79",
					"maxclass" : "newobj",
					"numinlets" : 2,
					"numoutlets" : 1,
					"outlettype" : [ "signal" ],
					"patching_rect" : [ 361.0, 650.0, 34.0, 22.0 ],
					"text" : "*~ 1."
				}

			}
, 			{
				"box" : 				{
					"id" : "obj-78",
					"maxclass" : "message",
					"numinlets" : 2,
					"numoutlets" : 1,
					"outlettype" : [ "" ],
					"patching_rect" : [ 847.0, 364.0, 45.0, 22.0 ],
					"text" : "$1 100"
				}

			}
, 			{
				"box" : 				{
					"id" : "obj-76",
					"maxclass" : "newobj",
					"numinlets" : 2,
					"numoutlets" : 2,
					"outlettype" : [ "signal", "bang" ],
					"patching_rect" : [ 847.0, 389.302245999999968, 48.0, 22.0 ],
					"text" : "line~ 1."
				}

			}
, 			{
				"box" : 				{
					"annotation" : "",
					"bgcolor" : [ 0.172549019607843, 0.184313725490196, 0.996078431372549, 1.0 ],
					"elementcolor" : [ 0.996078431372549, 0.32156862745098, 0.137254901960784, 1.0 ],
					"floatoutput" : 1,
					"hint" : "",
					"id" : "obj-75",
					"knobcolor" : [ 0.0, 0.0, 0.0, 1.0 ],
					"knobshape" : 3,
					"maxclass" : "slider",
					"numinlets" : 1,
					"numoutlets" : 1,
					"outlettype" : [ "" ],
					"parameter_enable" : 1,
					"patching_rect" : [ 847.0, 285.302245999999968, 541.185410334346443, 75.0 ],
					"presentation" : 1,
					"presentation_rect" : [ 10.251519756838661, 6.0, 211.745440729484017, 39.0 ],
					"saved_attribute_attributes" : 					{
						"valueof" : 						{
							"parameter_initial" : [ 0.5 ],
							"parameter_initial_enable" : 1,
							"parameter_linknames" : 1,
							"parameter_longname" : "gain[1]",
							"parameter_mmax" : 1.0,
							"parameter_shortname" : "gain",
							"parameter_type" : 0,
							"parameter_unitstyle" : 1
						}

					}
,
					"size" : 1.0,
					"varname" : "gain[1]"
				}

			}
, 			{
				"box" : 				{
					"id" : "obj-74",
					"maxclass" : "newobj",
					"numinlets" : 1,
					"numoutlets" : 3,
					"outlettype" : [ "bang", "bang", "bang" ],
					"patching_rect" : [ 792.0, 72.0, 42.0, 22.0 ],
					"text" : "t b b b"
				}

			}
, 			{
				"box" : 				{
					"id" : "obj-71",
					"maxclass" : "newobj",
					"numinlets" : 2,
					"numoutlets" : 1,
					"outlettype" : [ "int" ],
					"patching_rect" : [ 40.0, 41.0, 59.0, 22.0 ],
					"text" : "random 2"
				}

			}
, 			{
				"box" : 				{
					"id" : "obj-48",
					"maxclass" : "newobj",
					"numinlets" : 2,
					"numoutlets" : 1,
					"outlettype" : [ "signal" ],
					"patching_rect" : [ 40.0, 573.0, 34.0, 22.0 ],
					"text" : "*~ 1."
				}

			}
, 			{
				"box" : 				{
					"id" : "obj-29",
					"maxclass" : "message",
					"numinlets" : 2,
					"numoutlets" : 1,
					"outlettype" : [ "" ],
					"patching_rect" : [ 847.0, 110.0, 67.0, 22.0 ],
					"text" : "fs.t.noCard"
				}

			}
, 			{
				"box" : 				{
					"id" : "obj-23",
					"maxclass" : "ezdac~",
					"numinlets" : 2,
					"numoutlets" : 0,
					"patching_rect" : [ 40.0, 631.0, 48.25, 48.25 ]
				}

			}
, 			{
				"box" : 				{
					"fontname" : "Arial",
					"fontsize" : 12.0,
					"id" : "obj-12",
					"linecount" : 3,
					"maxclass" : "message",
					"numinlets" : 2,
					"numoutlets" : 1,
					"outlettype" : [ "" ],
					"patching_rect" : [ 847.0, 172.0, 100.0, 50.0 ],
					"text" : "script sendbox dummyTwindow replace $1"
				}

			}
, 			{
				"box" : 				{
					"fontname" : "Arial",
					"fontsize" : 12.0,
					"id" : "obj-13",
					"maxclass" : "newobj",
					"numinlets" : 1,
					"numoutlets" : 2,
					"outlettype" : [ "", "" ],
					"patching_rect" : [ 847.0, 241.075927999999976, 69.0, 22.0 ],
					"save" : [ "#N", "thispatcher", ";", "#Q", "end", ";" ],
					"text" : "thispatcher"
				}

			}
, 			{
				"box" : 				{
					"bgcolor" : [ 1.0, 1.0, 1.0, 0.0 ],
					"bgmode" : 0,
					"border" : 0,
					"clickthrough" : 0,
					"enablehscroll" : 0,
					"enablevscroll" : 0,
					"id" : "obj-9",
					"lockeddragscroll" : 0,
					"lockedsize" : 0,
					"maxclass" : "bpatcher",
					"name" : "fs.t.M-I.maxpat",
					"numinlets" : 1,
					"numoutlets" : 2,
					"offset" : [ 0.0, 0.0 ],
					"outlettype" : [ "signal", "signal" ],
					"patching_rect" : [ 40.0, 119.302245999999997, 242.0, 382.0 ],
					"presentation" : 1,
					"presentation_rect" : [ 15.0, 96.5, 238.0, 441.5 ],
					"varname" : "dummyTwindow",
					"viewvisibility" : 1
				}

			}
, 			{
				"box" : 				{
					"id" : "obj-145",
					"maxclass" : "message",
					"numinlets" : 2,
					"numoutlets" : 1,
					"outlettype" : [ "" ],
					"patching_rect" : [ 1027.18541033434667, 597.0, 35.0, 22.0 ],
					"text" : "clear"
				}

			}
, 			{
				"box" : 				{
					"activebgcolor" : [ 0.498039215686275, 0.16078431372549, 0.070588235294118, 1.0 ],
					"activebgoncolor" : [ 0.172549019607843, 0.184313725490196, 0.996078431372549, 1.0 ],
					"id" : "obj-73",
					"maxclass" : "live.button",
					"numinlets" : 1,
					"numoutlets" : 1,
					"outlettype" : [ "" ],
					"parameter_enable" : 1,
					"patching_rect" : [ 792.0, 41.0, 30.0, 29.0 ],
					"presentation" : 1,
					"presentation_rect" : [ 223.996960486322678, 10.0, 33.0, 31.0 ],
					"saved_attribute_attributes" : 					{
						"activebgcolor" : 						{
							"expression" : ""
						}
,
						"activebgoncolor" : 						{
							"expression" : ""
						}
,
						"valueof" : 						{
							"parameter_enum" : [ "off", "on" ],
							"parameter_longname" : "live.button[4]",
							"parameter_mmax" : 1,
							"parameter_shortname" : "live.button",
							"parameter_type" : 2
						}

					}
,
					"varname" : "live.button[4]"
				}

			}
 ],
		"lines" : [ 			{
				"patchline" : 				{
					"destination" : [ "obj-2", 0 ],
					"source" : [ "obj-1", 0 ]
				}

			}
, 			{
				"patchline" : 				{
					"destination" : [ "obj-172", 0 ],
					"midpoints" : [ 967.68541033434667, 722.0, 967.68541033434667, 722.0 ],
					"source" : [ "obj-119", 0 ]
				}

			}
, 			{
				"patchline" : 				{
					"destination" : [ "obj-13", 0 ],
					"midpoints" : [ 856.5, 224.0, 856.5, 224.0 ],
					"source" : [ "obj-12", 0 ]
				}

			}
, 			{
				"patchline" : 				{
					"destination" : [ "obj-119", 0 ],
					"midpoints" : [ 967.68541033434667, 692.0, 967.68541033434667, 692.0 ],
					"source" : [ "obj-120", 0 ]
				}

			}
, 			{
				"patchline" : 				{
					"destination" : [ "obj-136", 0 ],
					"midpoints" : [ 967.68541033434667, 554.0, 967.68541033434667, 554.0 ],
					"source" : [ "obj-135", 0 ]
				}

			}
, 			{
				"patchline" : 				{
					"destination" : [ "obj-138", 0 ],
					"midpoints" : [ 967.68541033434667, 593.0, 967.68541033434667, 593.0 ],
					"source" : [ "obj-136", 0 ]
				}

			}
, 			{
				"patchline" : 				{
					"destination" : [ "obj-144", 0 ],
					"midpoints" : [ 967.68541033434667, 620.0, 967.68541033434667, 620.0 ],
					"source" : [ "obj-138", 0 ]
				}

			}
, 			{
				"patchline" : 				{
					"destination" : [ "obj-120", 0 ],
					"midpoints" : [ 1008.18541033434667, 665.0, 967.68541033434667, 665.0 ],
					"order" : 1,
					"source" : [ "obj-144", 1 ]
				}

			}
, 			{
				"patchline" : 				{
					"destination" : [ "obj-22", 0 ],
					"midpoints" : [ 1008.18541033434667, 666.0, 945.0, 666.0, 945.0, 873.0, 972.68541033434667, 873.0 ],
					"order" : 0,
					"source" : [ "obj-144", 1 ]
				}

			}
, 			{
				"patchline" : 				{
					"destination" : [ "obj-144", 0 ],
					"midpoints" : [ 1036.68541033434667, 620.0, 967.68541033434667, 620.0 ],
					"source" : [ "obj-145", 0 ]
				}

			}
, 			{
				"patchline" : 				{
					"destination" : [ "obj-12", 0 ],
					"midpoints" : [ 972.68541033434667, 845.0, 834.0, 845.0, 834.0, 167.0, 856.5, 167.0 ],
					"source" : [ "obj-169", 0 ]
				}

			}
, 			{
				"patchline" : 				{
					"destination" : [ "obj-169", 1 ],
					"midpoints" : [ 1003.68541033434667, 767.0, 1003.68541033434667, 767.0 ],
					"source" : [ "obj-172", 1 ]
				}

			}
, 			{
				"patchline" : 				{
					"destination" : [ "obj-135", 0 ],
					"midpoints" : [ 967.68541033434667, 452.0, 967.68541033434667, 452.0 ],
					"source" : [ "obj-178", 0 ]
				}

			}
, 			{
				"patchline" : 				{
					"destination" : [ "obj-178", 0 ],
					"midpoints" : [ 967.68541033434667, 428.0, 967.68541033434667, 428.0 ],
					"source" : [ "obj-180", 0 ]
				}

			}
, 			{
				"patchline" : 				{
					"destination" : [ "obj-169", 0 ],
					"midpoints" : [ 929.496960486322678, 818.0, 960.0, 818.0, 960.0, 791.0, 972.68541033434667, 791.0 ],
					"order" : 0,
					"source" : [ "obj-185", 0 ]
				}

			}
, 			{
				"patchline" : 				{
					"destination" : [ "obj-3", 0 ],
					"midpoints" : [ 929.496960486322678, 819.0, 489.0, 819.0, 489.0, 606.0, 27.0, 606.0, 27.0, 66.0, 49.5, 66.0 ],
					"order" : 1,
					"source" : [ "obj-185", 0 ]
				}

			}
, 			{
				"patchline" : 				{
					"destination" : [ "obj-86", 0 ],
					"midpoints" : [ 1362.685410334346443, 65.0, 1362.685410334346443, 65.0 ],
					"source" : [ "obj-196", 0 ]
				}

			}
, 			{
				"patchline" : 				{
					"destination" : [ "obj-80", 0 ],
					"source" : [ "obj-2", 0 ]
				}

			}
, 			{
				"patchline" : 				{
					"destination" : [ "obj-3", 0 ],
					"midpoints" : [ 607.5, 723.0, 489.0, 723.0, 489.0, 606.0, 27.0, 606.0, 27.0, 66.0, 49.5, 66.0 ],
					"source" : [ "obj-20", 0 ]
				}

			}
, 			{
				"patchline" : 				{
					"destination" : [ "obj-193", 0 ],
					"midpoints" : [ 49.5, 722.0, 49.5, 722.0 ],
					"source" : [ "obj-215", 0 ]
				}

			}
, 			{
				"patchline" : 				{
					"destination" : [ "obj-20", 0 ],
					"midpoints" : [ 972.68541033434667, 909.0, 732.0, 909.0, 732.0, 684.0, 607.5, 684.0 ],
					"order" : 0,
					"source" : [ "obj-22", 0 ]
				}

			}
, 			{
				"patchline" : 				{
					"destination" : [ "obj-215", 0 ],
					"midpoints" : [ 972.68541033434667, 909.0, 27.0, 909.0, 27.0, 693.0, 49.5, 693.0 ],
					"order" : 1,
					"source" : [ "obj-22", 0 ]
				}

			}
, 			{
				"patchline" : 				{
					"destination" : [ "obj-12", 0 ],
					"midpoints" : [ 856.5, 134.0, 856.5, 134.0 ],
					"source" : [ "obj-29", 0 ]
				}

			}
, 			{
				"patchline" : 				{
					"destination" : [ "obj-20", 0 ],
					"midpoints" : [ 80.784739454094279, 105.0, 27.0, 105.0, 27.0, 618.0, 607.5, 618.0 ],
					"order" : 0,
					"source" : [ "obj-3", 1 ]
				}

			}
, 			{
				"patchline" : 				{
					"destination" : [ "obj-215", 0 ],
					"midpoints" : [ 80.784739454094279, 104.0, 27.0, 104.0, 27.0, 695.0, 49.5, 695.0 ],
					"order" : 1,
					"source" : [ "obj-3", 1 ]
				}

			}
, 			{
				"patchline" : 				{
					"destination" : [ "obj-9", 0 ],
					"midpoints" : [ 80.784739454094279, 104.0, 49.5, 104.0 ],
					"order" : 2,
					"source" : [ "obj-3", 1 ]
				}

			}
, 			{
				"patchline" : 				{
					"destination" : [ "obj-48", 0 ],
					"midpoints" : [ 49.5, 566.0, 49.5, 566.0 ],
					"source" : [ "obj-4", 0 ]
				}

			}
, 			{
				"patchline" : 				{
					"destination" : [ "obj-79", 0 ],
					"midpoints" : [ 49.5, 617.0, 370.5, 617.0 ],
					"source" : [ "obj-48", 0 ]
				}

			}
, 			{
				"patchline" : 				{
					"destination" : [ "obj-144", 0 ],
					"source" : [ "obj-59", 0 ]
				}

			}
, 			{
				"patchline" : 				{
					"destination" : [ "obj-3", 0 ],
					"midpoints" : [ 49.5, 65.0, 49.5, 65.0 ],
					"source" : [ "obj-71", 0 ]
				}

			}
, 			{
				"patchline" : 				{
					"destination" : [ "obj-74", 0 ],
					"midpoints" : [ 801.5, 71.0, 801.5, 71.0 ],
					"source" : [ "obj-73", 0 ]
				}

			}
, 			{
				"patchline" : 				{
					"destination" : [ "obj-59", 0 ],
					"source" : [ "obj-74", 2 ]
				}

			}
, 			{
				"patchline" : 				{
					"destination" : [ "obj-71", 0 ],
					"midpoints" : [ 801.5, 95.0, 666.0, 95.0, 666.0, 26.0, 49.5, 26.0 ],
					"source" : [ "obj-74", 0 ]
				}

			}
, 			{
				"patchline" : 				{
					"destination" : [ "obj-78", 0 ],
					"midpoints" : [ 856.5, 362.0, 856.5, 362.0 ],
					"source" : [ "obj-75", 0 ]
				}

			}
, 			{
				"patchline" : 				{
					"color" : [ 1.0, 0.0, 0.0, 1.0 ],
					"destination" : [ "obj-2", 1 ],
					"order" : 0,
					"source" : [ "obj-76", 0 ]
				}

			}
, 			{
				"patchline" : 				{
					"color" : [ 1.0, 0.0, 0.0, 1.0 ],
					"destination" : [ "obj-48", 1 ],
					"midpoints" : [ 856.5, 423.0, 828.0, 423.0, 828.0, 606.0, 84.0, 606.0, 84.0, 567.0, 64.5, 567.0 ],
					"order" : 1,
					"source" : [ "obj-76", 0 ]
				}

			}
, 			{
				"patchline" : 				{
					"destination" : [ "obj-76", 0 ],
					"midpoints" : [ 856.5, 389.0, 856.5, 389.0 ],
					"source" : [ "obj-78", 0 ]
				}

			}
, 			{
				"patchline" : 				{
					"destination" : [ "obj-23", 0 ],
					"midpoints" : [ 370.5, 674.0, 99.0, 674.0, 99.0, 617.0, 49.5, 617.0 ],
					"order" : 1,
					"source" : [ "obj-79", 0 ]
				}

			}
, 			{
				"patchline" : 				{
					"destination" : [ "obj-81", 0 ],
					"midpoints" : [ 370.5, 684.0, 852.0, 684.0, 852.0, 420.0, 875.5, 420.0 ],
					"order" : 0,
					"source" : [ "obj-79", 0 ]
				}

			}
, 			{
				"patchline" : 				{
					"destination" : [ "obj-23", 1 ],
					"midpoints" : [ 453.5, 674.0, 405.0, 674.0, 405.0, 626.0, 78.75, 626.0 ],
					"order" : 1,
					"source" : [ "obj-80", 0 ]
				}

			}
, 			{
				"patchline" : 				{
					"destination" : [ "obj-82", 0 ],
					"midpoints" : [ 453.5, 684.0, 852.0, 684.0, 852.0, 420.0, 895.0, 420.0 ],
					"order" : 0,
					"source" : [ "obj-80", 0 ]
				}

			}
, 			{
				"patchline" : 				{
					"destination" : [ "obj-180", 0 ],
					"midpoints" : [ 1362.685410334346443, 272.0, 1398.0, 272.0, 1398.0, 389.0, 967.68541033434667, 389.0 ],
					"order" : 0,
					"source" : [ "obj-86", 0 ]
				}

			}
, 			{
				"patchline" : 				{
					"destination" : [ "obj-20", 0 ],
					"midpoints" : [ 1362.685410334346443, 159.0, 828.0, 159.0, 828.0, 684.0, 607.5, 684.0 ],
					"order" : 2,
					"source" : [ "obj-86", 0 ]
				}

			}
, 			{
				"patchline" : 				{
					"destination" : [ "obj-215", 0 ],
					"midpoints" : [ 1362.685410334346443, 159.0, 828.0, 159.0, 828.0, 684.0, 49.5, 684.0 ],
					"order" : 3,
					"source" : [ "obj-86", 0 ]
				}

			}
, 			{
				"patchline" : 				{
					"destination" : [ "obj-29", 0 ],
					"midpoints" : [ 1362.685410334346443, 92.0, 856.5, 92.0 ],
					"order" : 1,
					"source" : [ "obj-86", 0 ]
				}

			}
, 			{
				"patchline" : 				{
					"destination" : [ "obj-1", 0 ],
					"source" : [ "obj-9", 1 ]
				}

			}
, 			{
				"patchline" : 				{
					"destination" : [ "obj-4", 0 ],
					"source" : [ "obj-9", 0 ]
				}

			}
 ],
		"parameters" : 		{
			"obj-185" : [ "live.button[2]", "live.button", 0 ],
			"obj-73" : [ "live.button[4]", "live.button", 0 ],
			"obj-75" : [ "gain[1]", "gain", 0 ],
			"obj-9::obj-4::obj-18" : [ "out[1]", "out", 0 ],
			"obj-9::obj-7::obj-91::obj-67" : [ "gain[10]", "gain", 0 ],
			"obj-9::obj-7::obj-91::obj-68" : [ "gain[7]", "gain", 0 ],
			"parameterbanks" : 			{

			}
,
			"inherited_shortname" : 1
		}
,
		"dependency_cache" : [ 			{
				"name" : "fs.t.M-I.maxpat",
				"bootpath" : "D:/0_projects/_tools/gitProjects/fs.TAROT/fs-tarot/0_MAJORS",
				"patcherrelativepath" : "./0_MAJORS",
				"type" : "JSON",
				"implicit" : 1
			}
, 			{
				"name" : "d_1-M_the_magician.jpg",
				"bootpath" : "D:/0_projects/_tools/gitProjects/fs.TAROT/fs-tarot/z_media/picsDown/MAJORS",
				"patcherrelativepath" : "./z_media/picsDown/MAJORS",
				"type" : "JPEG",
				"implicit" : 1
			}
, 			{
				"name" : "fs.lfo.maxpat",
				"bootpath" : "D:/0_projects/_tools/gitProjects/maxlib-felthiv/utils",
				"patcherrelativepath" : "../../maxlib-felthiv/utils",
				"type" : "JSON",
				"implicit" : 1
			}
, 			{
				"name" : "fs.scales.maxpat",
				"bootpath" : "D:/0_projects/_tools/gitProjects/maxlib-felthiv/utils",
				"patcherrelativepath" : "../../maxlib-felthiv/utils",
				"type" : "JSON",
				"implicit" : 1
			}
, 			{
				"name" : "fs.ntom.maxpat",
				"bootpath" : "D:/0_projects/_tools/gitProjects/maxlib-felthiv/utils",
				"patcherrelativepath" : "../../maxlib-felthiv/utils",
				"type" : "JSON",
				"implicit" : 1
			}
, 			{
				"name" : "fs.rev.maxpat",
				"bootpath" : "D:/0_projects/_tools/gitProjects/maxlib-felthiv/fx",
				"patcherrelativepath" : "../../maxlib-felthiv/fx",
				"type" : "JSON",
				"implicit" : 1
			}
, 			{
				"name" : "fs.dw.maxpat",
				"bootpath" : "D:/0_projects/_tools/gitProjects/maxlib-felthiv/utils",
				"patcherrelativepath" : "../../maxlib-felthiv/utils",
				"type" : "JSON",
				"implicit" : 1
			}
, 			{
				"name" : "fs.am.maxpat",
				"bootpath" : "D:/0_projects/_tools/gitProjects/maxlib-felthiv/fx",
				"patcherrelativepath" : "../../maxlib-felthiv/fx",
				"type" : "JSON",
				"implicit" : 1
			}
, 			{
				"name" : "fs.oscilC.maxpat",
				"bootpath" : "D:/0_projects/_tools/gitProjects/maxlib-felthiv/generators",
				"patcherrelativepath" : "../../maxlib-felthiv/generators",
				"type" : "JSON",
				"implicit" : 1
			}
, 			{
				"name" : "fs.delmod.maxpat",
				"bootpath" : "D:/0_projects/_tools/gitProjects/maxlib-felthiv/fx",
				"patcherrelativepath" : "../../maxlib-felthiv/fx",
				"type" : "JSON",
				"implicit" : 1
			}
, 			{
				"name" : "fs.del.maxpat",
				"bootpath" : "D:/0_projects/_tools/gitProjects/maxlib-felthiv/fx",
				"patcherrelativepath" : "../../maxlib-felthiv/fx",
				"type" : "JSON",
				"implicit" : 1
			}
, 			{
				"name" : "fs.trap.maxpat",
				"bootpath" : "D:/0_projects/_tools/gitProjects/maxlib-felthiv/utils",
				"patcherrelativepath" : "../../maxlib-felthiv/utils",
				"type" : "JSON",
				"implicit" : 1
			}
, 			{
				"name" : "fs.met.maxpat",
				"bootpath" : "D:/0_projects/_tools/gitProjects/maxlib-felthiv/utils",
				"patcherrelativepath" : "../../maxlib-felthiv/utils",
				"type" : "JSON",
				"implicit" : 1
			}
, 			{
				"name" : "fs.bpm.maxpat",
				"bootpath" : "D:/0_projects/_tools/gitProjects/maxlib-felthiv/utils",
				"patcherrelativepath" : "../../maxlib-felthiv/utils",
				"type" : "JSON",
				"implicit" : 1
			}
 ],
		"autosave" : 0,
		"bgcolor" : [ 0.203921568627451, 0.203921568627451, 0.203921568627451, 1.0 ],
		"editing_bgcolor" : [ 0.501960784313725, 0.501960784313725, 0.501960784313725, 1.0 ]
	}

}
